umbra-2.ufo
<glyph name="dollar" format="1">
  <advance width="449"/>
  <unicode hex="0024"/>
  <outline>
    <contour>
      <point x="401" y="329" type="curve" smooth="yes"/>
      <point x="401" y="389"/>
      <point x="168" y="392"/>
      <point x="168" y="542" type="curve" smooth="yes"/>
      <point x="168" y="621"/>
      <point x="224" y="672"/>
      <point x="302" y="688" type="curve"/>
      <point x="287" y="749" type="line"/>
      <point x="427" y="749" type="line"/>
      <point x="412" y="688" type="line"/>
      <point x="458" y="676"/>
      <point x="500" y="649"/>
      <point x="537" y="607" type="curve"/>
      <point x="497" y="497" type="line"/>
      <point x="457" y="535"/>
      <point x="409" y="574"/>
      <point x="361" y="574" type="curve" smooth="yes"/>
      <point x="333" y="574"/>
      <point x="323" y="560"/>
      <point x="323" y="542" type="curve" smooth="yes"/>
      <point x="323" y="482"/>
      <point x="546" y="475"/>
      <point x="546" y="331" type="curve" smooth="yes"/>
      <point x="546" y="226"/>
      <point x="481" y="181"/>
      <point x="398" y="168" type="curve"/>
      <point x="414" y="104" type="line"/>
      <point x="274" y="104" type="line"/>
      <point x="290" y="168" type="line"/>
      <point x="221" y="178"/>
      <point x="169" y="208"/>
      <point x="137" y="246" type="curve"/>
      <point x="177" y="361" type="line"/>
      <point x="217" y="323"/>
      <point x="286" y="289"/>
      <point x="334" y="289" type="curve" smooth="yes"/>
      <point x="372" y="289"/>
      <point x="401" y="298"/>
    </contour>
  </outline>
</glyph>
<glyph name="parenleft" format="1">
  <advance width="232"/>
  <unicode hex="0028"/>
  <outline>
    <contour>
      <point x="264" y="139" type="line"/>
      <point x="189" y="224"/>
      <point x="152" y="329"/>
      <point x="152" y="434" type="curve" smooth="yes"/>
      <point x="152" y="539"/>
      <point x="189" y="644"/>
      <point x="264" y="729" type="curve"/>
      <point x="354" y="729" type="line"/>
      <point x="304" y="654"/>
      <point x="280" y="544"/>
      <point x="280" y="434" type="curve" smooth="yes"/>
      <point x="280" y="324"/>
      <point x="304" y="214"/>
      <point x="354" y="139" type="curve"/>
    </contour>
  </outline>
</glyph>
<glyph name="plus" format="1">
  <advance width="560"/>
  <unicode hex="002B"/>
  <outline>
    <contour>
      <point x="207" y="369" type="line"/>
      <point x="207" y="479" type="line"/>
      <point x="332" y="479" type="line"/>
      <point x="332" y="599" type="line"/>
      <point x="472" y="599" type="line"/>
      <point x="472" y="479" type="line"/>
      <point x="597" y="479" type="line"/>
      <point x="597" y="369" type="line"/>
      <point x="472" y="369" type="line"/>
      <point x="472" y="249" type="line"/>
      <point x="332" y="249" type="line"/>
      <point x="332" y="369" type="line"/>
    </contour>
  </outline>
</glyph>
<glyph name="hyphen" format="1">
  <advance width="560"/>
  <unicode hex="002D"/>
  <outline>
    <contour>
      <point x="207" y="449" type="line"/>
      <point x="207" y="559" type="line"/>
      <point x="597" y="559" type="line"/>
      <point x="597" y="449" type="line"/>
    </contour>
  </outline>
</glyph>
<glyph name="period" format="1">
  <advance width="291"/>
  <unicode hex="002E"/>
  <outline>
    <contour>
      <point x="267" y="151" type="line"/>
      <point x="162" y="256" type="line"/>
      <point x="267" y="362" type="line"/>
      <point x="373" y="256" type="line"/>
    </contour>
  </outline>
</glyph>
<glyph name="slash" format="1">
  <advance width="460"/>
  <unicode hex="002F"/>
  <outline>
    <contour>
      <point x="132" y="179" type="line"/>
      <point x="442" y="679" type="line"/>
      <point x="572" y="679" type="line"/>
      <point x="262" y="179" type="line"/>
    </contour>
  </outline>
</glyph>
<glyph name="zero" format="1">
  <advance width="510"/>
  <unicode hex="0030"/>
  <outline>
    <contour>
      <point x="152" y="429" type="curve" smooth="yes"/>
      <point x="152" y="578"/>
      <point x="222" y="699"/>
      <point x="377" y="699" type="curve" smooth="yes"/>
      <point x="532" y="699"/>
      <point x="602" y="578"/>
      <point x="602" y="429" type="curve" smooth="yes"/>
      <point x="602" y="280"/>
      <point x="532" y="159"/>
      <point x="377" y="159" type="curve" smooth="yes"/>
      <point x="222" y="159"/>
      <point x="152" y="280"/>
    </contour>
    <contour>
      <point x="297" y="429" type="curve" smooth="yes"/>
      <point x="297" y="336"/>
      <point x="325" y="284"/>
      <point x="377" y="284" type="curve" smooth="yes"/>
      <point x="429" y="284"/>
      <point x="457" y="336"/>
      <point x="457" y="429" type="curve" smooth="yes"/>
      <point x="457" y="522"/>
      <point x="429" y="574"/>
      <point x="377" y="574" type="curve" smooth="yes"/>
      <point x="325" y="574"/>
      <point x="297" y="522"/>
    </contour>
  </outline>
</glyph>
<glyph name="four" format="1">
  <advance width="490"/>
  <unicode hex="0034"/>
  <outline>
    <contour>
      <point x="377" y="274" type="line"/>
      <point x="300" y="274"/>
      <point x="224" y="274"/>
      <point x="147" y="274" type="curve"/>
      <point x="127" y="344" type="line"/>
      <point x="417" y="679" type="line"/>
      <point x="517" y="679" type="line"/>
      <point x="517" y="579"/>
      <point x="517" y="479"/>
      <point x="517" y="379" type="curve"/>
      <point x="587" y="379" type="line"/>
      <point x="587" y="274" type="line"/>
      <point x="517" y="274" type="line"/>
      <point x="517" y="179" type="line"/>
      <point x="377" y="179" type="line"/>
    </contour>
    <contour>
      <point x="388" y="379" type="line"/>
      <point x="388" y="511" type="line"/>
      <point x="274" y="379" type="line"/>
    </contour>
  </outline>
</glyph>
<glyph name="six" format="1">
  <advance width="474"/>
  <unicode hex="0036"/>
  <outline>
    <contour>
      <point x="297" y="341" type="curve" smooth="yes"/>
      <point x="297" y="313"/>
      <point x="316" y="284"/>
      <point x="364" y="284" type="curve" smooth="yes"/>
      <point x="412" y="284"/>
      <point x="431" y="313"/>
      <point x="431" y="341" type="curve" smooth="yes"/>
      <point x="431" y="369"/>
      <point x="412" y="398"/>
      <point x="364" y="398" type="curve" smooth="yes"/>
      <point x="316" y="398"/>
      <point x="297" y="369"/>
    </contour>
    <contour>
      <point x="561" y="341" type="curve" smooth="yes"/>
      <point x="561" y="234"/>
      <point x="486" y="169"/>
      <point x="369" y="169" type="curve" smooth="yes"/>
      <point x="212" y="169"/>
      <point x="157" y="294"/>
      <point x="157" y="411" type="curve" smooth="yes"/>
      <point x="157" y="538"/>
      <point x="233" y="689"/>
      <point x="370" y="689" type="curve" smooth="yes"/>
      <point x="447" y="689"/>
      <point x="517" y="654"/>
      <point x="557" y="607" type="curve"/>
      <point x="516" y="501" type="line"/>
      <point x="476" y="539"/>
      <point x="439" y="569"/>
      <point x="391" y="569" type="curve" smooth="yes"/>
      <point x="323" y="569"/>
      <point x="294" y="510"/>
      <point x="288" y="442" type="curve"/>
      <point x="318" y="479"/>
      <point x="364" y="493"/>
      <point x="399" y="493" type="curve" smooth="yes"/>
      <point x="466" y="493"/>
      <point x="561" y="448"/>
    </contour>
  </outline>
</glyph>
<glyph name="semicolon" format="1">
  <advance width="291"/>
  <unicode hex="003B"/>
  <outline>
    <contour>
      <point x="207" y="59" type="line"/>
      <point x="207" y="319" type="line"/>
      <point x="337" y="319" type="line"/>
      <point x="337" y="179" type="line"/>
    </contour>
    <contour>
      <point x="267" y="436" type="line"/>
      <point x="162" y="541" type="line"/>
      <point x="267" y="647" type="line"/>
      <point x="373" y="541" type="line"/>
    </contour>
  </outline>
</glyph>
<glyph name="at" format="1">
  <advance width="700"/>
  <unicode hex="0040"/>
  <outline>
    <contour>
      <point x="802" y="399" type="curve" smooth="yes"/>
      <point x="802" y="269"/>
      <point x="755" y="167"/>
      <point x="628" y="167" type="curve" smooth="yes"/>
      <point x="581" y="167"/>
      <point x="536" y="178"/>
      <point x="521" y="224" type="curve"/>
      <point x="497" y="197"/>
      <point x="465" y="179"/>
      <point x="429" y="179" type="curve" smooth="yes"/>
      <point x="322" y="179"/>
      <point x="277" y="274"/>
      <point x="277" y="361" type="curve" smooth="yes"/>
      <point x="277" y="448"/>
      <point x="332" y="544"/>
      <point x="419" y="544" type="curve" smooth="yes"/>
      <point x="456" y="544"/>
      <point x="489" y="527"/>
      <point x="516" y="501" type="curve"/>
      <point x="516" y="534" type="line"/>
      <point x="651" y="534" type="line"/>
      <point x="651" y="289" type="line" smooth="yes"/>
      <point x="651" y="261"/>
      <point x="653" y="252"/>
      <point x="668" y="252" type="curve" smooth="yes"/>
      <point x="696" y="252"/>
      <point x="717" y="319"/>
      <point x="717" y="399" type="curve" smooth="yes"/>
      <point x="717" y="572"/>
      <point x="599" y="629"/>
      <point x="477" y="629" type="curve" smooth="yes"/>
      <point x="365" y="629"/>
      <point x="227" y="542"/>
      <point x="227" y="369" type="curve" smooth="yes"/>
      <point x="227" y="166"/>
      <point x="355" y="114"/>
      <point x="507" y="114" type="curve"/>
      <point x="507" y="49" type="line"/>
      <point x="282" y="49"/>
      <point x="142" y="150"/>
      <point x="142" y="369" type="curve" smooth="yes"/>
      <point x="142" y="558"/>
      <point x="292" y="699"/>
      <point x="477" y="699" type="curve" smooth="yes"/>
      <point x="672" y="699"/>
      <point x="802" y="568"/>
    </contour>
    <contour>
      <point x="516" y="308" type="curve"/>
      <point x="516" y="415" type="line"/>
      <point x="499" y="433"/>
      <point x="475" y="439"/>
      <point x="459" y="439" type="curve" smooth="yes"/>
      <point x="431" y="439"/>
      <point x="412" y="409"/>
      <point x="412" y="361" type="curve" smooth="yes"/>
      <point x="412" y="313"/>
      <point x="431" y="284"/>
      <point x="459" y="284" type="curve" smooth="yes"/>
      <point x="475" y="284"/>
      <point x="499" y="291"/>
    </contour>
  </outline>
</glyph>
<glyph name="K" format="1">
  <advance width="525"/>
  <unicode hex="004B"/>
  <outline>
    <contour>
      <point x="167" y="179" type="line"/>
      <point x="167" y="679" type="line"/>
      <point x="307" y="679" type="line"/>
      <point x="307" y="472" type="line"/>
      <point x="467" y="679" type="line"/>
      <point x="637" y="679" type="line"/>
      <point x="457" y="459" type="line"/>
      <point x="647" y="179" type="line"/>
      <point x="467" y="179" type="line"/>
      <point x="307" y="415" type="line"/>
      <point x="307" y="179" type="line"/>
    </contour>
  </outline>
</glyph>
<glyph name="N" format="1">
  <advance width="590"/>
  <unicode hex="004E"/>
  <outline>
    <contour>
      <point x="167" y="179" type="line"/>
      <point x="167" y="679" type="line"/>
      <point x="337" y="679" type="line"/>
      <point x="527" y="362" type="line"/>
      <point x="527" y="679" type="line"/>
      <point x="667" y="679" type="line"/>
      <point x="667" y="179" type="line"/>
      <point x="497" y="179" type="line"/>
      <point x="307" y="496" type="line"/>
      <point x="307" y="179" type="line"/>
    </contour>
  </outline>
</glyph>
<glyph name="O" format="1">
  <advance width="610"/>
  <unicode hex="004F"/>
  <outline>
    <contour>
      <point x="152" y="429" type="curve" smooth="yes"/>
      <point x="152" y="578"/>
      <point x="252" y="699"/>
      <point x="427" y="699" type="curve" smooth="yes"/>
      <point x="602" y="699"/>
      <point x="702" y="578"/>
      <point x="702" y="429" type="curve" smooth="yes"/>
      <point x="702" y="280"/>
      <point x="602" y="159"/>
      <point x="427" y="159" type="curve" smooth="yes"/>
      <point x="252" y="159"/>
      <point x="152" y="280"/>
    </contour>
    <contour>
      <point x="297" y="429" type="curve" smooth="yes"/>
      <point x="297" y="336"/>
      <point x="365" y="284"/>
      <point x="427" y="284" type="curve" smooth="yes"/>
      <point x="489" y="284"/>
      <point x="557" y="336"/>
      <point x="557" y="429" type="curve" smooth="yes"/>
      <point x="557" y="522"/>
      <point x="489" y="574"/>
      <point x="427" y="574" type="curve" smooth="yes"/>
      <point x="365" y="574"/>
      <point x="297" y="522"/>
    </contour>
  </outline>
</glyph>
<glyph name="P" format="1">
  <advance width="487"/>
  <unicode hex="0050"/>
  <outline>
    <contour>
      <point x="167" y="179" type="line"/>
      <point x="167" y="679" type="line"/>
      <point x="240" y="679"/>
      <point x="314" y="679"/>
      <point x="387" y="679" type="curve" smooth="yes"/>
      <point x="504" y="679"/>
      <point x="589" y="604"/>
      <point x="589" y="497" type="curve" smooth="yes"/>
      <point x="589" y="380"/>
      <point x="504" y="314"/>
      <point x="387" y="314" type="curve" smooth="yes"/>
      <point x="307" y="314" type="line"/>
      <point x="307" y="179" type="line"/>
    </contour>
    <contour>
      <point x="377" y="564" type="curve" smooth="yes"/>
      <point x="307" y="564" type="line"/>
      <point x="307" y="429" type="line"/>
      <point x="377" y="429" type="line" smooth="yes"/>
      <point x="415" y="429"/>
      <point x="444" y="449"/>
      <point x="444" y="497" type="curve" smooth="yes"/>
      <point x="444" y="545"/>
      <point x="415" y="564"/>
    </contour>
  </outline>
</glyph>
<glyph name="R" format="1">
  <advance width="515"/>
  <unicode hex="0052"/>
  <outline>
    <contour>
      <point x="167" y="179" type="line"/>
      <point x="167" y="679" type="line"/>
      <point x="240" y="679"/>
      <point x="314" y="679"/>
      <point x="387" y="679" type="curve" smooth="yes"/>
      <point x="504" y="679"/>
      <point x="589" y="634"/>
      <point x="589" y="507" type="curve" smooth="yes"/>
      <point x="589" y="428"/>
      <point x="542" y="387"/>
      <point x="470" y="372" type="curve"/>
      <point x="617" y="179" type="line"/>
      <point x="457" y="179" type="line"/>
      <point x="307" y="369" type="line"/>
      <point x="307" y="179" type="line"/>
    </contour>
    <contour>
      <point x="374" y="564" type="curve" smooth="yes"/>
      <point x="307" y="564" type="line"/>
      <point x="307" y="449" type="line"/>
      <point x="374" y="449" type="line" smooth="yes"/>
      <point x="412" y="449"/>
      <point x="444" y="459"/>
      <point x="444" y="507" type="curve" smooth="yes"/>
      <point x="444" y="555"/>
      <point x="412" y="564"/>
    </contour>
  </outline>
</glyph>
<glyph name="W" format="1">
  <advance width="880"/>
  <unicode hex="0057"/>
  <outline>
    <contour>
      <point x="982" y="679" type="line"/>
      <point x="792" y="179" type="line"/>
      <point x="632" y="179" type="line"/>
      <point x="564" y="374" type="line"/>
      <point x="492" y="179" type="line"/>
      <point x="332" y="179" type="line"/>
      <point x="142" y="679" type="line"/>
      <point x="292" y="679" type="line"/>
      <point x="416" y="314" type="line"/>
      <point x="503" y="532" type="line"/>
      <point x="442" y="679" type="line"/>
      <point x="602" y="679" type="line"/>
      <point x="714" y="331" type="line"/>
      <point x="832" y="679" type="line"/>
    </contour>
  </outline>
</glyph>
<glyph name="Y" format="1">
  <advance width="540"/>
  <unicode hex="0059"/>
  <outline>
    <contour>
      <point x="462" y="359" type="line"/>
      <point x="462" y="179" type="line"/>
      <point x="322" y="179" type="line"/>
      <point x="322" y="359" type="line"/>
      <point x="132" y="679" type="line"/>
      <point x="292" y="679" type="line"/>
      <point x="392" y="479" type="line"/>
      <point x="492" y="679" type="line"/>
      <point x="652" y="679" type="line"/>
    </contour>
  </outline>
</glyph>
<glyph name="b" format="1">
  <advance width="499"/>
  <unicode hex="0062"/>
  <outline>
    <contour>
      <point x="162" y="179" type="line"/>
      <point x="162" y="709" type="line"/>
      <point x="297" y="709" type="line"/>
      <point x="297" y="525" type="line"/>
      <point x="328" y="556"/>
      <point x="369" y="574"/>
      <point x="414" y="574" type="curve" smooth="yes"/>
      <point x="521" y="574"/>
      <point x="586" y="488"/>
      <point x="586" y="371" type="curve" smooth="yes"/>
      <point x="586" y="254"/>
      <point x="521" y="169"/>
      <point x="414" y="169" type="curve" smooth="yes"/>
      <point x="369" y="169"/>
      <point x="328" y="189"/>
      <point x="297" y="221" type="curve"/>
      <point x="297" y="179" type="line"/>
    </contour>
    <contour>
      <point x="297" y="312" type="line"/>
      <point x="316" y="288"/>
      <point x="345" y="274"/>
      <point x="374" y="274" type="curve" smooth="yes"/>
      <point x="422" y="274"/>
      <point x="451" y="313"/>
      <point x="451" y="371" type="curve" smooth="yes"/>
      <point x="451" y="429"/>
      <point x="422" y="469"/>
      <point x="374" y="469" type="curve" smooth="yes"/>
      <point x="345" y="469"/>
      <point x="316" y="454"/>
      <point x="297" y="430" type="curve"/>
    </contour>
  </outline>
</glyph>
<glyph name="d" format="1">
  <advance width="499"/>
  <unicode hex="0064"/>
  <outline>
    <contour>
      <point x="581" y="179" type="line"/>
      <point x="446" y="179" type="line"/>
      <point x="446" y="221" type="line"/>
      <point x="415" y="189"/>
      <point x="374" y="169"/>
      <point x="329" y="169" type="curve" smooth="yes"/>
      <point x="222" y="169"/>
      <point x="157" y="254"/>
      <point x="157" y="371" type="curve" smooth="yes"/>
      <point x="157" y="488"/>
      <point x="222" y="574"/>
      <point x="329" y="574" type="curve" smooth="yes"/>
      <point x="374" y="574"/>
      <point x="415" y="556"/>
      <point x="446" y="525" type="curve"/>
      <point x="446" y="709" type="line"/>
      <point x="581" y="709" type="line"/>
    </contour>
    <contour>
      <point x="446" y="430" type="line"/>
      <point x="427" y="454"/>
      <point x="398" y="469"/>
      <point x="369" y="469" type="curve" smooth="yes"/>
      <point x="321" y="469"/>
      <point x="292" y="429"/>
      <point x="292" y="371" type="curve" smooth="yes"/>
      <point x="292" y="313"/>
      <point x="321" y="274"/>
      <point x="369" y="274" type="curve" smooth="yes"/>
      <point x="398" y="274"/>
      <point x="427" y="288"/>
      <point x="446" y="312" type="curve"/>
    </contour>
  </outline>
</glyph>
<glyph name="e" format="1">
  <advance width="469"/>
  <unicode hex="0065"/>
  <outline>
    <contour>
      <point x="162" y="371" type="curve" smooth="yes"/>
      <point x="162" y="498"/>
      <point x="247" y="574"/>
      <point x="364" y="574" type="curve" smooth="yes"/>
      <point x="481" y="574"/>
      <point x="556" y="498"/>
      <point x="556" y="391" type="curve"/>
      <point x="314" y="302" type="line"/>
      <point x="330" y="282"/>
      <point x="353" y="269"/>
      <point x="384" y="269" type="curve" smooth="yes"/>
      <point x="427" y="269"/>
      <point x="454" y="293"/>
      <point x="476" y="327" type="curve"/>
      <point x="536" y="234" type="line"/>
      <point x="500" y="190"/>
      <point x="442" y="169"/>
      <point x="374" y="169" type="curve" smooth="yes"/>
      <point x="257" y="169"/>
      <point x="162" y="244"/>
    </contour>
    <contour>
      <point x="440" y="445" type="line"/>
      <point x="425" y="465"/>
      <point x="401" y="478"/>
      <point x="367" y="478" type="curve" smooth="yes"/>
      <point x="312" y="478"/>
      <point x="290" y="432"/>
      <point x="287" y="387" type="curve"/>
    </contour>
  </outline>
</glyph>
<glyph name="h" format="1">
  <advance width="474"/>
  <unicode hex="0068"/>
  <outline>
    <contour>
      <point x="162" y="179" type="line"/>
      <point x="162" y="709" type="line"/>
      <point x="297" y="709" type="line"/>
      <point x="297" y="492" type="line"/>
      <point x="330" y="542"/>
      <point x="379" y="574"/>
      <point x="424" y="574" type="curve" smooth="yes"/>
      <point x="511" y="574"/>
      <point x="556" y="518"/>
      <point x="556" y="421" type="curve" smooth="yes"/>
      <point x="556" y="179" type="line"/>
      <point x="421" y="179" type="line"/>
      <point x="421" y="391" type="line" smooth="yes"/>
      <point x="421" y="449"/>
      <point x="402" y="469"/>
      <point x="374" y="469" type="curve" smooth="yes"/>
      <point x="345" y="469"/>
      <point x="316" y="447"/>
      <point x="297" y="419" type="curve"/>
      <point x="297" y="179" type="line"/>
    </contour>
  </outline>
</glyph>
<glyph name="m" format="1">
  <advance width="693"/>
  <unicode hex="006D"/>
  <outline>
    <contour>
      <point x="162" y="179" type="line"/>
      <point x="162" y="564" type="line"/>
      <point x="297" y="564" type="line"/>
      <point x="297" y="498" type="line"/>
      <point x="327" y="545"/>
      <point x="371" y="574"/>
      <point x="414" y="574" type="curve" smooth="yes"/>
      <point x="474" y="574"/>
      <point x="509" y="547"/>
      <point x="525" y="499" type="curve"/>
      <point x="561" y="545"/>
      <point x="611" y="574"/>
      <point x="653" y="574" type="curve" smooth="yes"/>
      <point x="740" y="574"/>
      <point x="775" y="518"/>
      <point x="775" y="421" type="curve" smooth="yes"/>
      <point x="775" y="179" type="line"/>
      <point x="640" y="179" type="line"/>
      <point x="640" y="391" type="line" smooth="yes"/>
      <point x="640" y="449"/>
      <point x="631" y="469"/>
      <point x="603" y="469" type="curve" smooth="yes"/>
      <point x="576" y="469"/>
      <point x="552" y="450"/>
      <point x="536" y="425" type="curve"/>
      <point x="536" y="343"/>
      <point x="536" y="261"/>
      <point x="536" y="179" type="curve"/>
      <point x="401" y="179" type="line"/>
      <point x="401" y="391" type="line" smooth="yes"/>
      <point x="401" y="449"/>
      <point x="392" y="469"/>
      <point x="364" y="469" type="curve" smooth="yes"/>
      <point x="337" y="469"/>
      <point x="313" y="450"/>
      <point x="297" y="425" type="curve"/>
      <point x="297" y="179" type="line"/>
    </contour>
  </outline>
</glyph>
<glyph name="o" format="1">
  <advance width="474"/>
  <unicode hex="006F"/>
  <outline>
    <contour>
      <point x="287" y="371" type="curve" smooth="yes"/>
      <point x="287" y="323"/>
      <point x="311" y="284"/>
      <point x="359" y="284" type="curve" smooth="yes"/>
      <point x="407" y="284"/>
      <point x="431" y="323"/>
      <point x="431" y="371" type="curve" smooth="yes"/>
      <point x="431" y="419"/>
      <point x="407" y="459"/>
      <point x="359" y="459" type="curve" smooth="yes"/>
      <point x="311" y="459"/>
      <point x="287" y="419"/>
    </contour>
    <contour>
      <point x="157" y="371" type="curve" smooth="yes"/>
      <point x="157" y="498"/>
      <point x="242" y="574"/>
      <point x="359" y="574" type="curve" smooth="yes"/>
      <point x="476" y="574"/>
      <point x="561" y="498"/>
      <point x="561" y="371" type="curve" smooth="yes"/>
      <point x="561" y="244"/>
      <point x="476" y="169"/>
      <point x="359" y="169" type="curve" smooth="yes"/>
      <point x="242" y="169"/>
      <point x="157" y="254"/>
    </contour>
  </outline>
</glyph>
<glyph name="q" format="1">
  <advance width="499"/>
  <unicode hex="0071"/>
  <outline>
    <contour>
      <point x="586" y="564" type="line"/>
      <point x="586" y="34" type="line"/>
      <point x="451" y="34" type="line"/>
      <point x="451" y="218" type="line"/>
      <point x="420" y="187"/>
      <point x="379" y="169"/>
      <point x="334" y="169" type="curve" smooth="yes"/>
      <point x="227" y="169"/>
      <point x="162" y="255"/>
      <point x="162" y="372" type="curve" smooth="yes"/>
      <point x="162" y="489"/>
      <point x="227" y="574"/>
      <point x="334" y="574" type="curve" smooth="yes"/>
      <point x="379" y="574"/>
      <point x="420" y="554"/>
      <point x="451" y="522" type="curve"/>
      <point x="451" y="564" type="line"/>
    </contour>
    <contour>
      <point x="451" y="431" type="line"/>
      <point x="432" y="455"/>
      <point x="403" y="469"/>
      <point x="374" y="469" type="curve" smooth="yes"/>
      <point x="326" y="469"/>
      <point x="297" y="430"/>
      <point x="297" y="372" type="curve" smooth="yes"/>
      <point x="297" y="314"/>
      <point x="326" y="274"/>
      <point x="374" y="274" type="curve" smooth="yes"/>
      <point x="403" y="274"/>
      <point x="432" y="289"/>
      <point x="451" y="313" type="curve"/>
    </contour>
  </outline>
</glyph>
<glyph name="r" format="1">
  <advance width="374"/>
  <unicode hex="0072"/>
  <outline>
    <contour>
      <point x="496" y="501" type="curve"/>
      <point x="421" y="401" type="line"/>
      <point x="401" y="429"/>
      <point x="392" y="449"/>
      <point x="354" y="449" type="curve" smooth="yes"/>
      <point x="335" y="449"/>
      <point x="314" y="437"/>
      <point x="297" y="419" type="curve"/>
      <point x="297" y="179" type="line"/>
      <point x="162" y="179" type="line"/>
      <point x="162" y="564" type="line"/>
      <point x="277" y="564" type="line"/>
      <point x="286" y="489" type="line"/>
      <point x="315" y="537"/>
      <point x="357" y="569"/>
      <point x="394" y="569" type="curve" smooth="yes"/>
      <point x="451" y="569"/>
      <point x="476" y="528"/>
    </contour>
  </outline>
</glyph>
<glyph name="t" format="1">
  <advance width="325"/>
  <unicode hex="0074"/>
  <outline>
    <contour>
      <point x="142" y="464" type="line"/>
      <point x="142" y="564" type="line"/>
      <point x="212" y="564" type="line"/>
      <point x="212" y="629" type="line"/>
      <point x="347" y="689" type="line"/>
      <point x="347" y="564" type="line"/>
      <point x="427" y="564" type="line"/>
      <point x="427" y="464" type="line"/>
      <point x="347" y="464" type="line"/>
      <point x="347" y="179" type="line"/>
      <point x="212" y="179" type="line"/>
      <point x="212" y="464" type="line"/>
    </contour>
  </outline>
</glyph>
<glyph name="u" format="1">
  <advance width="474"/>
  <unicode hex="0075"/>
  <outline>
    <contour>
      <point x="556" y="564" type="line"/>
      <point x="556" y="179" type="line"/>
      <point x="421" y="179" type="line"/>
      <point x="421" y="251" type="line"/>
      <point x="388" y="201"/>
      <point x="339" y="169"/>
      <point x="294" y="169" type="curve" smooth="yes"/>
      <point x="207" y="169"/>
      <point x="162" y="225"/>
      <point x="162" y="322" type="curve" smooth="yes"/>
      <point x="162" y="564" type="line"/>
      <point x="297" y="564" type="line"/>
      <point x="297" y="352" type="line" smooth="yes"/>
      <point x="297" y="294"/>
      <point x="316" y="274"/>
      <point x="344" y="274" type="curve" smooth="yes"/>
      <point x="373" y="274"/>
      <point x="402" y="296"/>
      <point x="421" y="324" type="curve"/>
      <point x="421" y="564" type="line"/>
    </contour>
  </outline>
</glyph>
<glyph name="v" format="1">
  <advance width="465"/>
  <unicode hex="0076"/>
  <outline>
    <contour>
      <point x="282" y="179" type="line"/>
      <point x="132" y="564" type="line"/>
      <point x="277" y="564" type="line"/>
      <point x="358" y="280" type="line"/>
      <point x="432" y="564" type="line"/>
      <point x="577" y="564" type="line"/>
      <point x="437" y="179" type="line"/>
    </contour>
  </outline>
</glyph>
<glyph name="x" format="1">
  <advance width="465"/>
  <unicode hex="0078"/>
  <outline>
    <contour>
      <point x="354" y="477" type="line"/>
      <point x="422" y="564" type="line"/>
      <point x="577" y="564" type="line"/>
      <point x="432" y="378" type="line"/>
      <point x="587" y="179" type="line"/>
      <point x="432" y="179" type="line"/>
      <point x="354" y="278" type="line"/>
      <point x="277" y="179" type="line"/>
      <point x="122" y="179" type="line"/>
      <point x="277" y="378" type="line"/>
      <point x="132" y="564" type="line"/>
      <point x="287" y="564" type="line"/>
    </contour>
  </outline>
</glyph>
<glyph name="quotedblleft" format="1">
  <advance width="430"/>
  <unicode hex="201C"/>
  <outline>
    <contour>
      <point x="507" y="719" type="line"/>
      <point x="507" y="459" type="line"/>
      <point x="377" y="459" type="line"/>
      <point x="377" y="599" type="line"/>
    </contour>
    <contour>
      <point x="297" y="719" type="line"/>
      <point x="297" y="459" type="line"/>
      <point x="167" y="459" type="line"/>
      <point x="167" y="599" type="line"/>
    </contour>
  </outline>
</glyph>
